STARTFONT 2.1
FONT -WRI-Mathematica5-Medium-R-Normal--26-260-75-75-p-140-Adobe-FontSpecific
SIZE 26 75 75
FONTBOUNDINGBOX 82 54 -5 -20
STARTPROPERTIES 16
FOUNDRY "WRI"
FAMILY_NAME "Mathematica5"
WEIGHT_NAME "Medium"
SLANT "R"
SETWIDTH_NAME "Normal"
PIXEL_SIZE 26
POINT_SIZE 260
RESOLUTION_X 75
RESOLUTION_Y 75
SPACING "p"
AVERAGE_WIDTH 140
CHARSET_REGISTRY "Adobe"
CHARSET_ENCODING "FontSpecific"
FONT_DESCENT 20
FONT_ASCENT 34
DEFAULT_CHAR 32
ENDPROPERTIES
CHARS 228
STARTCHAR Villa
ENCODING 1
SWIDTH 627 0
DWIDTH 16 0
BBX 16 22 0 -4
BITMAP
004c
00cc
032c
0614
0dea
19e4
3004
5ffa
9005
11e4
1374
13f4
1214
1324
1224
1224
1ffc
03e0
07a0
0be0
1fa0
0720
ENDCHAR
STARTCHAR Kooz
ENCODING 2
SWIDTH 746 0
DWIDTH 19 0
BBX 19 22 0 -4
BITMAP
040000
73f000
0e7800
0a5800
046e00
077e00
0ac400
2b5c00
252800
1db380
27e040
240020
480c20
581d60
980600
e83240
280040
280040
280420
140620
080100
0000c0
ENDCHAR
STARTCHAR Andy
ENCODING 3
SWIDTH 1000 0
DWIDTH 26 0
BBX 21 19 1 0
BITMAP
c00000
801800
c01800
001800
a01800
a01000
a013c0
1ffc00
4c9200
c11400
a1f800
000c00
e00400
e00800
003000
40e000
c18008
c180f0
00ff00
ENDCHAR
STARTCHAR Spooky
ENCODING 4
SWIDTH 535 0
DWIDTH 14 0
BBX 15 16 0 0
BITMAP
0010
3020
1860
1ce0
0f60
4c20
2fe6
1eb8
db20
317e
0920
3d78
1be0
1960
0850
0040
ENDCHAR
STARTCHAR space
ENCODING 32
SWIDTH 189 0
DWIDTH 5 0
BBX 0 0 0 0
BITMAP
ENDCHAR
STARTCHAR BckspcKey
ENCODING 33
SWIDTH 1981 0
DWIDTH 52 0
BBX 48 20 2 -3
BITMAP
ffffffffffff
800000000001
800000000001
800000000001
800000000001
9e0f213cf8f1
911122628c99
9090a4428509
909028408501
911028208d01
9f103018f901
909028048101
909024028101
90d0a6428109
909122428089
9f0f213c80f1
800000000001
800000000001
800000000001
ffffffffffff
ENDCHAR
STARTCHAR HomeKey
ENCODING 34
SWIDTH 1603 0
DWIDTH 42 0
BBX 38 20 2 -3
BITMAP
fffffffffc
8000000004
8000000004
8000000004
8002000004
908d981be4
9090981a04
9090541a04
9090542a04
9090542a04
9f90522be4
9090524a04
9090524a04
9090514a04
9098918a04
908f118be4
8000000004
8000000004
8000000004
fffffffffc
ENDCHAR
STARTCHAR PgupKey
ENCODING 35
SWIDTH 1444 0
DWIDTH 38 0
BBX 34 20 2 -3
BITMAP
ffffffffc0
8000000040
8000000040
8000000040
8000000040
9e1e213c40
9123212640
9121212240
9120212240
9120212640
9e27213c40
9021212040
9021212040
9021212040
9021332040
901f1e2040
8000000040
8000000040
8000000040
ffffffffc0
ENDCHAR
STARTCHAR PgdwnKey
ENCODING 36
SWIDTH 1999 0
DWIDTH 52 0
BBX 48 20 2 -3
BITMAP
ffffffffffff
800000000001
800000000001
800000000001
800000000001
9e1e3e410b09
913123230b09
91a120a30b89
90a020a29289
912020a292c9
9e2720949249
902120949269
902120946229
902120946239
9031210c6219
901f3e086219
800000000001
800000000001
800000000001
ffffffffffff
ENDCHAR
STARTCHAR EndKey
ENCODING 37
SWIDTH 1187 0
DWIDTH 31 0
BBX 28 20 2 -3
BITMAP
ffffffe0
80000020
80000020
80000020
80000020
9f613e20
90612120
905120a0
905120a0
905920a0
9f4920a0
904d20a0
904520a0
904520a0
9042fff0
9f433e20
80000020
80000020
80000020
ffffffe0
ENDCHAR
STARTCHAR FilledHeart
ENCODING 38
SWIDTH 605 0
DWIDTH 16 0
BBX 14 15 1 0
BITMAP
3870
7cf8
7ff8
fffc
fffc
fffc
7ff8
7ff8
3ff0
1fe0
0fc0
0780
0300
0300
0100
ENDCHAR
STARTCHAR Euro
ENCODING 39
SWIDTH 500 0
DWIDTH 13 0
BBX 13 18 0 0
BITMAP
07c0
0c70
1830
3010
3010
3000
6000
6000
ffc0
6000
ffc0
6000
6000
6000
3008
3010
1860
0f80
ENDCHAR
STARTCHAR CapitalOE
ENCODING 40
SWIDTH 889 0
DWIDTH 23 0
BBX 22 17 1 0
BITMAP
07fff0
1c3830
381810
301810
701800
601800
e01840
e01840
e01fc0
e018c0
e01840
e01840
601800
701804
381808
1c3830
07fff0
ENDCHAR
STARTCHAR OE
ENCODING 41
SWIDTH 722 0
DWIDTH 19 0
BBX 17 12 1 0
BITMAP
1e1c00
23a600
61c300
40c300
c0ff00
c0c000
c0c000
c0c000
c0e080
60f100
71fe00
1e1c00
ENDCHAR
STARTCHAR ABar
ENCODING 42
SWIDTH 444 0
DWIDTH 12 0
BBX 11 16 1 0
BITMAP
7f80
0000
0000
0000
3e00
6300
c180
c180
0380
0d80
3180
4180
c180
c180
c7a0
79c0
ENDCHAR
STARTCHAR ACup
ENCODING 43
SWIDTH 444 0
DWIDTH 12 0
BBX 11 17 1 0
BITMAP
4080
2180
1f00
0000
0000
3e00
6300
c180
c180
0180
0f80
3180
6180
c180
c180
c7a0
79c0
ENDCHAR
STARTCHAR CapitalABar
ENCODING 44
SWIDTH 722 0
DWIDTH 19 0
BBX 18 20 0 0
BITMAP
07f800
000000
008000
008000
00c000
01c000
01e000
026000
027000
027000
043800
043800
041c00
0ffc00
080e00
180e00
100700
300700
700780
f81fc0
ENDCHAR
STARTCHAR CapitalACup
ENCODING 45
SWIDTH 722 0
DWIDTH 19 0
BBX 18 23 0 0
BITMAP
041000
041000
023000
01e000
000000
008000
008000
01c000
01c000
01e000
026000
027000
067000
043800
043800
081c00
0ffc00
101c00
100e00
300e00
200700
700780
f81fc0
ENDCHAR
STARTCHAR CAcute
ENCODING 46
SWIDTH 444 0
DWIDTH 12 0
BBX 10 18 1 0
BITMAP
0180
0380
0700
0c00
0800
0000
0f00
3180
6180
4180
c000
c000
c000
c000
e040
7080
3f00
1e00
ENDCHAR
STARTCHAR CHacek
ENCODING 47
SWIDTH 444 0
DWIDTH 12 0
BBX 10 18 1 0
BITMAP
6080
3100
1a00
0e00
0c00
0000
0f00
3180
6180
4180
c000
c000
c000
c000
e040
7080
3f00
1e00
ENDCHAR
STARTCHAR ScriptZero
ENCODING 48
SWIDTH 440 0
DWIDTH 11 0
BBX 12 18 1 -1
BITMAP
01e0
0660
0c30
1830
3030
3030
7030
6030
6070
e060
c060
c060
c0c0
c0c0
c180
c300
6600
7c00
ENDCHAR
STARTCHAR ScriptOne
ENCODING 49
SWIDTH 440 0
DWIDTH 11 0
BBX 12 18 0 0
BITMAP
0020
00e0
03e0
06c0
00c0
00c0
00c0
0180
0180
0180
0180
0300
0300
0300
0700
0700
0f80
fff0
ENDCHAR
STARTCHAR ScriptTwo
ENCODING 50
SWIDTH 440 0
DWIDTH 11 0
BBX 13 18 -1 0
BITMAP
01e0
07f0
0c38
0818
0018
0018
0030
0030
0060
00c0
0100
0200
0400
1800
3010
7f30
7fe0
83e0
ENDCHAR
STARTCHAR ScriptThree
ENCODING 51
SWIDTH 519 0
DWIDTH 13 0
BBX 13 17 -1 0
BITMAP
01f0
0238
0018
0018
0010
0060
01e0
07f0
0070
0030
0030
0030
0020
0060
6040
f980
7e00
ENDCHAR
STARTCHAR ScriptFour
ENCODING 52
SWIDTH 519 0
DWIDTH 13 0
BBX 13 18 0 0
BITMAP
0018
0030
0070
00b0
0160
0260
0460
0cc0
18c0
30c0
6180
fff0
fff0
0180
0300
0300
0380
0200
ENDCHAR
STARTCHAR ScriptFive
ENCODING 53
SWIDTH 519 0
DWIDTH 13 0
BBX 13 19 0 -1
BITMAP
0008
03f8
07e0
0400
0400
0800
1f80
01c0
00e0
0060
0060
0060
0060
0040
0040
0080
4180
e300
7c00
ENDCHAR
STARTCHAR ScriptSix
ENCODING 54
SWIDTH 519 0
DWIDTH 13 0
BBX 13 18 1 0
BITMAP
0078
01f8
0700
0e00
1c00
3800
3780
79c0
70e0
e060
e060
c060
c060
c040
c0c0
4080
6100
3e00
ENDCHAR
STARTCHAR ScriptSeven
ENCODING 55
SWIDTH 519 0
DWIDTH 13 0
BBX 12 17 3 0
BITMAP
fff0
ffe0
0040
0080
0180
0300
0600
0c00
1800
1000
3000
6000
4000
c000
c000
e000
c000
ENDCHAR
STARTCHAR ScriptEight
ENCODING 56
SWIDTH 519 0
DWIDTH 13 0
BBX 13 17 0 0
BITMAP
00f0
0318
0418
0c18
0c18
0e30
0fc0
0780
0fc0
38e0
6070
4030
c030
c020
c040
6180
3e00
ENDCHAR
STARTCHAR ScriptNine
ENCODING 57
SWIDTH 519 0
DWIDTH 13 0
BBX 14 18 -1 0
BITMAP
00f0
0318
040c
0c0c
080c
180c
180c
180c
1c1c
0ff8
0798
0038
0030
0060
0060
4180
ff00
7c00
ENDCHAR
STARTCHAR ODoubleAcute
ENCODING 58
SWIDTH 500 0
DWIDTH 13 0
BBX 11 18 1 0
BITMAP
0640
0cc0
1980
3600
0000
0000
1f00
2180
60c0
c0e0
c060
c060
c060
c060
6040
60c0
3080
1f00
ENDCHAR
STARTCHAR CapitalODoubleAcute
ENCODING 59
SWIDTH 722 0
DWIDTH 19 0
BBX 17 23 1 0
BITMAP
004c00
00dc00
01b000
064000
000000
03e000
0c1800
380e00
300600
700700
600300
e00380
e00380
e00380
e00380
e00380
e00380
600300
700700
300600
380e00
0c1800
03e000
ENDCHAR
STARTCHAR SHacek
ENCODING 60
SWIDTH 389 0
DWIDTH 10 0
BBX 8 17 1 0
BITMAP
83
66
3c
18
00
3e
42
c2
e0
78
7c
1e
0f
83
83
c6
bc
ENDCHAR
STARTCHAR CapitalSHacek
ENCODING 61
SWIDTH 556 0
DWIDTH 14 0
BBX 12 23 1 0
BITMAP
1020
0cc0
0780
0300
0000
1f20
30e0
6020
6020
6010
7010
3800
3e00
0f80
07c0
01e0
0070
8030
8030
4030
6020
70e0
4f80
ENDCHAR
STARTCHAR UDoubleAcute
ENCODING 62
SWIDTH 500 0
DWIDTH 13 0
BBX 13 18 0 0
BITMAP
0330
0660
0cc0
1b00
0000
0000
f1e0
3060
3060
3060
3060
3060
3060
3060
3060
3060
38e0
1f78
ENDCHAR
STARTCHAR CapitalUDoubleAcute
ENCODING 63
SWIDTH 722 0
DWIDTH 19 0
BBX 19 23 0 0
BITMAP
006600
00ce00
019800
032000
000000
000000
ff0fe0
3c0380
180100
180100
180100
180100
180100
180100
180100
180100
180100
180100
180100
180100
0c0200
0e0400
03f800
ENDCHAR
STARTCHAR HSlash
ENCODING 64
SWIDTH 516 0
DWIDTH 13 0
BBX 13 18 0 0
BITMAP
0f00
0300
0300
0200
0600
ffc0
0670
0cb0
0d30
0e30
1a20
1c60
1860
3860
3040
30c8
60d0
60e0
ENDCHAR
STARTCHAR ScriptCapA
ENCODING 65
SWIDTH 870 0
DWIDTH 23 0
BBX 23 18 0 -1
BITMAP
001ffc
00e0dc
010398
020318
040638
040c38
040c38
021878
007fb0
009830
003030
002030
006038
804038
c08038
c1003e
7e003c
3c0010
ENDCHAR
STARTCHAR ScriptCapB
ENCODING 66
SWIDTH 718 0
DWIDTH 19 0
BBX 18 19 0 -1
BITMAP
007f00
039380
0621c0
0c40c0
18c0c0
31c0c0
318180
318300
11fc00
198f00
038380
0301c0
0301c0
0701c0
060180
0c0380
300300
7e0c00
9ff000
ENDCHAR
STARTCHAR ScriptCapC
ENCODING 67
SWIDTH 648 0
DWIDTH 17 0
BBX 17 18 0 -1
BITMAP
007c00
038700
060380
0c0180
180180
380100
700200
700000
600000
e00000
e00000
e00000
e00000
e00400
700400
780c00
3c3800
0fc000
ENDCHAR
STARTCHAR ScriptCapD
ENCODING 68
SWIDTH 860 0
DWIDTH 22 0
BBX 22 18 0 -1
BITMAP
007f80
0391e0
0e2070
1c6038
38c038
30c01c
31c01c
31c01c
09801c
01801c
03801c
030038
030038
060070
040060
3800c0
ff0380
0ffc00
ENDCHAR
STARTCHAR ScriptCapE
ENCODING 69
SWIDTH 622 0
DWIDTH 16 0
BBX 16 18 0 0
BITMAP
03f8
0e0e
0c06
1c06
1c00
1c00
0700
07f0
1c00
3800
7002
e003
e003
e003
e002
f006
780c
1ff0
ENDCHAR
STARTCHAR ScriptCapF
ENCODING 70
SWIDTH 669 0
DWIDTH 17 0
BBX 22 20 1 -2
BITMAP
000004
07fff8
182000
606000
c0c000
c1c000
81c000
c18100
4ffe00
038000
038000
030000
030000
070000
060000
0e0000
0c0000
1c0000
300000
e00000
ENDCHAR
STARTCHAR ScriptCapG
ENCODING 71
SWIDTH 704 0
DWIDTH 18 0
BBX 18 22 0 -4
BITMAP
003f00
00e380
0380c0
0700c0
0e0080
0c0180
1c0000
380000
380000
707fc0
704300
700700
700600
700e00
783600
3c6600
1fcc00
0f0c00
401800
603000
f06000
3f8000
ENDCHAR
STARTCHAR ScriptCapH
ENCODING 72
SWIDTH 876 0
DWIDTH 23 0
BBX 25 19 0 0
BITMAP
00000180
00f80600
07700e00
08700c00
30700c00
60601c00
e0e01800
e0e01800
60c03800
20dff800
01e03000
01803000
01807000
03807000
03007000
07007000
07007000
0e007800
18000000
ENDCHAR
STARTCHAR ScriptCapI
ENCODING 73
SWIDTH 650 0
DWIDTH 17 0
BBX 17 18 0 0
BITMAP
00f880
031700
022000
006000
006000
00c000
00c000
01c000
01c000
01c000
018000
038000
038000
038000
030000
070000
042000
ffc000
ENDCHAR
STARTCHAR ScriptCapJ
ENCODING 74
SWIDTH 775 0
DWIDTH 20 0
BBX 23 22 -1 -4
BITMAP
001f82
0060fc
00c040
0181c0
030180
030380
030300
018300
000700
000700
000700
000700
000600
000600
000600
000e00
400e00
400c00
c01c00
e03800
786000
1f8000
ENDCHAR
STARTCHAR ScriptCapK
ENCODING 75
SWIDTH 796 0
DWIDTH 21 0
BBX 24 19 0 -1
BITMAP
01f80e
06703f
187071
6060e0
e06180
c0e300
c0c600
c0cc00
61fc00
01cc00
018e00
038e00
038700
030700
070380
070380
0e01c0
0e01f0
3000e0
ENDCHAR
STARTCHAR ScriptCapL
ENCODING 76
SWIDTH 749 0
DWIDTH 19 0
BBX 20 20 0 -2
BITMAP
0007c0
001c60
001860
003840
007000
007000
007000
007000
00f000
00e000
00e000
00c000
00c000
018000
018000
030000
3e0010
7fc020
83ffe0
001f80
ENDCHAR
STARTCHAR ScriptCapM
ENCODING 77
SWIDTH 1080 0
DWIDTH 28 0
BBX 27 19 1 -1
BITMAP
00200020
00e000c0
00e001c0
00f001c0
00f00180
01f00380
01380580
01380d80
01380980
021c1180
021c2180
061c4180
040f8180
0c0f0180
0c0f0180
180e0180
380e01c0
300c00e0
c0000080
ENDCHAR
STARTCHAR ScriptCapN
ENCODING 78
SWIDTH 822 0
DWIDTH 21 0
BBX 24 18 0 0
BITMAP
008003
03800c
03801c
038018
03c010
03c030
06e020
047020
047060
043840
0c1c40
0c1ec0
080ec0
1807c0
180780
300380
300380
c00100
ENDCHAR
STARTCHAR ScriptCapO
ENCODING 79
SWIDTH 703 0
DWIDTH 18 0
BBX 18 20 0 -1
BITMAP
007e00
000700
01e380
078180
0e00c0
1c00c0
1800c0
3800c0
7000c0
7000c0
f001c0
e00180
e00380
e00300
e00700
e00600
700c00
701c00
387000
0fc000
ENDCHAR
STARTCHAR ScriptCapP
ENCODING 80
SWIDTH 709 0
DWIDTH 18 0
BBX 18 18 0 0
BITMAP
01fc00
0f6300
1cc180
3180c0
6180c0
c380c0
c30080
c70180
6f0200
07fc00
078000
0e0000
0e0000
0c0000
1c0000
180000
380000
600000
ENDCHAR
STARTCHAR ScriptCapQ
ENCODING 81
SWIDTH 703 0
DWIDTH 18 0
BBX 18 20 0 -1
BITMAP
007e00
004700
006380
038180
0700c0
0e00c0
1c00c0
3800c0
3000c0
7000c0
7001c0
e00180
e00180
e00380
e7c300
e0f700
703e00
701c00
383f40
0fe780
ENDCHAR
STARTCHAR ScriptCapR
ENCODING 82
SWIDTH 680 0
DWIDTH 18 0
BBX 18 18 0 0
BITMAP
007e00
03a700
0cc180
3181c0
6380c0
c38180
c30180
c70700
471e00
27f000
063800
0e1c00
0e1c00
0c0e00
1c0600
1c0700
380380
600180
ENDCHAR
STARTCHAR ScriptCapS
ENCODING 83
SWIDTH 679 0
DWIDTH 18 0
BBX 17 19 0 -1
BITMAP
007e00
018700
020380
060180
060180
070100
078000
03c000
01f000
00fc00
003e00
001f00
200f00
400700
c00600
c00600
e00c00
783000
1fc000
ENDCHAR
STARTCHAR ScriptCapT
ENCODING 84
SWIDTH 678 0
DWIDTH 18 0
BBX 22 18 0 0
BITMAP
000004
07f808
381ff0
603000
c06000
c0e000
c0e000
60c000
01c000
01c000
018000
038000
038000
030000
070000
070000
0e0000
180000
ENDCHAR
STARTCHAR ScriptCapU
ENCODING 85
SWIDTH 897 0
DWIDTH 23 0
BBX 25 19 0 -1
BITMAP
00380380
03f00700
0e700e00
38700e00
70e00e00
e0e00c00
c0e01c00
c1c01c00
41c01800
61c03800
03803800
03807800
0380f000
0300f000
07037000
07067000
07187000
07e07800
03800000
ENDCHAR
STARTCHAR ScriptCapV
ENCODING 86
SWIDTH 892 0
DWIDTH 23 0
BBX 24 18 0 0
BITMAP
007807
03b80f
1c3807
303806
e03804
c0380c
c03818
401810
201c20
001c40
001cc0
001c80
001d00
001e00
001e00
001c00
001c00
001800
ENDCHAR
STARTCHAR ScriptCapW
ENCODING 87
SWIDTH 1202 0
DWIDTH 31 0
BBX 32 18 0 0
BITMAP
0008000f
01f01807
06703807
18703806
7070380c
e070380c
c0703818
40307810
40385c20
00389c40
00389c40
00391c80
003a1d00
003c1e00
003c1e00
00381c00
00381c00
00301000
ENDCHAR
STARTCHAR ScriptCapX
ENCODING 88
SWIDTH 738 0
DWIDTH 19 0
BBX 19 19 0 -1
BITMAP
0781e0
01c0e0
01c0c0
00e180
00e300
00e400
006800
007000
007000
01f000
023000
043800
083800
301c00
301c00
601c00
e00e00
e00f80
700700
ENDCHAR
STARTCHAR ScriptCapY
ENCODING 89
SWIDTH 797 0
DWIDTH 21 0
BBX 21 21 0 -2
BITMAP
000038
0100f0
0f80e0
0380e0
0181c0
0183c0
018380
018780
018f80
019b00
019300
01a700
01c600
018600
010e00
200c00
401800
c03800
e07000
f0c000
1f0000
ENDCHAR
STARTCHAR ScriptCapZ
ENCODING 90
SWIDTH 865 0
DWIDTH 22 0
BBX 23 21 0 -3
BITMAP
000002
01fffc
07fff8
0800e0
0801c0
000180
000300
000600
000c00
001800
001000
002000
006000
00c000
018000
030000
7f0004
9fe018
03fff0
007fe0
000fc0
ENDCHAR
STARTCHAR RightTriangleLeft
ENCODING 91
SWIDTH 600 0
DWIDTH 16 0
BBX 12 17 2 0
BITMAP
0010
0020
0060
0060
00e0
00e0
01e0
0360
0260
0660
0c60
0c60
1860
3060
3060
6060
ffe0
ENDCHAR
STARTCHAR RightTriangleRight
ENCODING 92
SWIDTH 600 0
DWIDTH 16 0
BBX 11 17 2 0
BITMAP
8000
8000
c000
c000
e000
e000
f000
d800
c800
cc00
c600
c600
c300
c180
c180
c0c0
ffe0
ENDCHAR
STARTCHAR DoubleRightTriangle
ENCODING 93
SWIDTH 624 0
DWIDTH 16 0
BBX 16 17 0 0
BITMAP
0140
0240
0240
0260
0660
0660
0e70
0e70
0a58
1a58
1a4c
324c
3246
2246
6246
7e7f
fe7f
ENDCHAR
STARTCHAR Female
ENCODING 94
SWIDTH 675 0
DWIDTH 18 0
BBX 9 17 4 0
BITMAP
1e00
6300
4180
8080
8080
8080
4080
6100
3e00
0c00
0c00
0c00
0c00
3f00
0c00
0c00
0c00
ENDCHAR
STARTCHAR Male
ENCODING 95
SWIDTH 810 0
DWIDTH 21 0
BBX 17 18 2 0
BITMAP
000080
000700
000300
000680
000c00
0fd800
307800
603000
401800
800800
800800
800800
800800
800800
401000
603000
306000
0f8000
ENDCHAR
STARTCHAR NearlyEquals
ENCODING 96
SWIDTH 644 0
DWIDTH 17 0
BBX 14 19 1 -3
BITMAP
0e00
0e00
0e00
0000
0000
0000
fffc
0000
0000
0000
0000
0000
fffc
0000
0000
0000
00e0
00e0
00e0
ENDCHAR
STARTCHAR ScriptA
ENCODING 97
SWIDTH 442 0
DWIDTH 11 0
BBX 11 11 0 0
BITMAP
07e0
18c0
3080
3080
6180
6100
6100
e320
efc0
f380
6200
ENDCHAR
STARTCHAR ScriptB
ENCODING 98
SWIDTH 487 0
DWIDTH 13 0
BBX 13 17 0 0
BITMAP
0c00
3c00
0c00
0c00
0c00
1800
18f8
1918
1e18
1c18
3838
3030
3030
3060
30c0
6380
fc00
ENDCHAR
STARTCHAR ScriptC
ENCODING 99
SWIDTH 408 0
DWIDTH 11 0
BBX 11 13 0 -1
BITMAP
07e0
18c0
3040
2080
6000
6000
c000
c000
c000
c080
c100
7600
3800
ENDCHAR
STARTCHAR ScriptD
ENCODING 100
SWIDTH 547 0
DWIDTH 14 0
BBX 14 19 0 -1
BITMAP
000c
0018
0038
0038
0030
0030
0030
03f0
0ce0
1060
2060
60c0
60c0
41c0
c3c0
c780
c990
f1e0
6180
ENDCHAR
STARTCHAR ScriptE
ENCODING 101
SWIDTH 409 0
DWIDTH 11 0
BBX 10 12 0 0
BITMAP
0380
0cc0
18c0
30c0
6180
6300
fc00
c000
c000
c100
6200
3c00
ENDCHAR
STARTCHAR ScriptF
ENCODING 102
SWIDTH 405 0
DWIDTH 11 0
BBX 15 21 -1 -3
BITMAP
003e
0044
0184
0180
0300
0300
0300
0fe0
0600
0600
0600
0c00
0c00
0c00
0c00
1800
1800
1800
3000
6000
c000
ENDCHAR
STARTCHAR ScriptG
ENCODING 103
SWIDTH 523 0
DWIDTH 14 0
BBX 14 17 -1 -6
BITMAP
00f8
031c
0418
0818
1838
1070
30f0
31f0
3260
3c60
38e0
00c0
00c0
0180
8100
c600
f800
ENDCHAR
STARTCHAR ScriptH
ENCODING 104
SWIDTH 486 0
DWIDTH 13 0
BBX 13 17 0 0
BITMAP
0700
1f00
0700
0600
0e00
0e38
0cf8
0f30
1e30
1c30
1860
1860
3860
30e0
30f0
70e0
c080
ENDCHAR
STARTCHAR ScriptI
ENCODING 105
SWIDTH 261 0
DWIDTH 7 0
BBX 7 17 0 0
BITMAP
02
06
04
04
08
00
7c
18
18
18
30
30
30
70
68
70
c0
ENDCHAR
STARTCHAR ScriptJ
ENCODING 106
SWIDTH 290 0
DWIDTH 8 0
BBX 12 22 -5 -5
BITMAP
0010
0030
0020
0020
0040
0000
01e0
02e0
00c0
00c0
00c0
00c0
01c0
0180
0180
0180
0300
0300
0200
8600
cc00
7000
ENDCHAR
STARTCHAR ScriptK
ENCODING 107
SWIDTH 464 0
DWIDTH 12 0
BBX 12 18 0 0
BITMAP
0700
1e00
0600
0e00
0e00
0c00
0c70
0c20
1c40
1980
1f00
1f00
3300
3380
3380
71c0
61e0
c080
ENDCHAR
STARTCHAR ScriptL
ENCODING 108
SWIDTH 273 0
DWIDTH 7 0
BBX 7 17 0 0
BITMAP
0e
3e
0c
0c
0c
18
18
18
10
30
30
20
60
60
78
e0
c0
ENDCHAR
STARTCHAR ScriptM
ENCODING 109
SWIDTH 732 0
DWIDTH 19 0
BBX 19 12 0 0
BITMAP
1c30e0
7cf1e0
1977e0
1a7ce0
1c78c0
3871c0
306180
306180
30c180
60c3a0
60c3c0
818300
ENDCHAR
STARTCHAR ScriptN
ENCODING 110
SWIDTH 476 0
DWIDTH 12 0
BBX 12 12 0 0
BITMAP
0c30
7cf0
1970
1e70
1860
3860
3040
30c0
30c0
60d0
60e0
c080
ENDCHAR
STARTCHAR ScriptO
ENCODING 111
SWIDTH 438 0
DWIDTH 11 0
BBX 11 12 0 -1
BITMAP
0780
08c0
3060
2060
6060
4060
c040
c0c0
c080
c100
6600
7800
ENDCHAR
STARTCHAR ScriptP
ENCODING 112
SWIDTH 483 0
DWIDTH 13 0
BBX 13 18 -1 -6
BITMAP
3e30
0cd8
0d18
0e18
0c18
1c10
1830
1830
1860
3860
7080
3f00
3000
7000
6000
6000
6000
8000
ENDCHAR
STARTCHAR ScriptQ
ENCODING 113
SWIDTH 477 0
DWIDTH 12 0
BBX 12 18 0 -6
BITMAP
03c0
0ff0
1860
3060
30e0
60c0
41c0
c3c0
c6c0
c9c0
f180
c180
0180
0380
0380
0380
0300
0600
ENDCHAR
STARTCHAR ScriptR
ENCODING 114
SWIDTH 389 0
DWIDTH 10 0
BBX 11 12 0 0
BITMAP
0800
3ce0
59c0
1a40
1c00
3800
3000
3000
3000
6000
6000
c000
ENDCHAR
STARTCHAR ScriptS
ENCODING 115
SWIDTH 421 0
DWIDTH 11 0
BBX 11 12 0 0
BITMAP
07c0
1860
3040
3000
3c00
1e00
0780
01c0
00c0
0080
e100
fe00
ENDCHAR
STARTCHAR ScriptT
ENCODING 116
SWIDTH 316 0
DWIDTH 8 0
BBX 8 16 0 0
BITMAP
04
18
18
38
7f
30
70
60
60
60
c0
c0
c2
c4
f8
e0
ENDCHAR
STARTCHAR ScriptU
ENCODING 117
SWIDTH 480 0
DWIDTH 12 0
BBX 13 12 0 0
BITMAP
0008
f830
b070
7060
60e0
60e0
61c0
c2c0
c4c0
c9d8
f1e0
c180
ENDCHAR
STARTCHAR ScriptV
ENCODING 118
SWIDTH 465 0
DWIDTH 12 0
BBX 12 12 0 0
BITMAP
0030
f0f0
3060
3840
18c0
1880
1880
1900
1a00
1c00
1c00
1000
ENDCHAR
STARTCHAR ScriptW
ENCODING 119
SWIDTH 645 0
DWIDTH 17 0
BBX 19 11 0 0
BITMAP
f060e0
30e1c0
30e180
31e100
31e300
32e600
346400
386800
387000
307000
204000
ENDCHAR
STARTCHAR ScriptX
ENCODING 120
SWIDTH 549 0
DWIDTH 14 0
BBX 14 12 0 0
BITMAP
0e0c
1e38
0630
0760
0380
0300
0780
0980
1180
21c0
40f0
e0c0
ENDCHAR
STARTCHAR ScriptY
ENCODING 121
SWIDTH 494 0
DWIDTH 13 0
BBX 14 18 -1 -6
BITMAP
0004
3c18
1c18
1838
1830
1870
10f0
31b0
3370
3660
3c60
3060
00c0
0080
0180
8200
c400
7800
ENDCHAR
STARTCHAR ScriptZ
ENCODING 122
SWIDTH 500 0
DWIDTH 13 0
BBX 13 12 0 0
BITMAP
0e08
1ff0
2060
0040
0080
0100
0200
0400
0800
3808
7e10
87e0
ENDCHAR
STARTCHAR ScriptAltL
ENCODING 123
SWIDTH 378 0
DWIDTH 10 0
BBX 10 17 0 0
BITMAP
01c0
0340
0640
0c80
1c80
1900
1a00
3400
3800
3000
2000
e000
6000
6000
6000
7800
6000
ENDCHAR
STARTCHAR LogicalNand
ENCODING 124
SWIDTH 611 0
DWIDTH 16 0
BBX 14 18 1 0
BITMAP
7ff8
0000
0000
0000
0780
0840
0840
0840
1820
1020
1020
3030
2010
2010
6018
4008
4008
c00c
ENDCHAR
STARTCHAR Nand2
ENCODING 125
SWIDTH 782 0
DWIDTH 20 0
BBX 19 23 1 -4
BITMAP
3fff80
000000
000000
000000
000000
03f800
020800
020800
060c00
040400
040400
0c0600
080200
080200
180300
100100
300180
300180
200180
6000c0
6000c0
4000c0
c00060
ENDCHAR
STARTCHAR Nand3
ENCODING 126
SWIDTH 1200 0
DWIDTH 31 0
BBX 30 40 1 -11
BITMAP
3ffffff0
00000000
00000000
00000000
00000000
00000000
00000000
00000000
00000000
003fe000
00303000
00203000
00601000
00601800
00401800
00c00800
00c00c00
00c00c00
01800400
01800600
01800600
03000200
03000300
03000300
06000180
06000180
06000180
0c0000c0
0c0000c0
0c0000c0
180000e0
18000060
18000060
38000070
30000030
30000030
70000038
60000018
60000018
e000001c
ENDCHAR
STARTCHAR DEL
ENCODING 127
SWIDTH 189 0
DWIDTH 5 0
BBX 0 0 0 0
BITMAP
ENDCHAR
STARTCHAR LogicalNor
ENCODING 128
SWIDTH 611 0
DWIDTH 16 0
BBX 14 17 1 0
BITMAP
7ff8
0000
0000
8004
4008
4008
6018
2010
2010
2030
1020
1020
1060
1840
0840
0840
0f80
ENDCHAR
STARTCHAR Nor2
ENCODING 129
SWIDTH 782 0
DWIDTH 20 0
BBX 19 23 1 -4
BITMAP
3fff80
000000
000000
000000
800020
400040
6000c0
6000c0
200080
300080
300180
100100
100100
180300
080200
080200
0c0600
040400
040400
060c00
020800
020800
03f800
ENDCHAR
STARTCHAR Nor3
ENCODING 130
SWIDTH 1200 0
DWIDTH 31 0
BBX 30 41 1 -12
BITMAP
3ffffff0
00000000
00000000
00000000
00000000
00000000
00000000
00000000
80000004
60000018
60000018
60000018
30000030
30000030
30000030
18000060
18000060
18000060
1c000060
0c0000c0
0c0000c0
0c0000c0
06000180
06000180
06000180
03000300
03000300
03000300
01800200
01800600
01800600
00800400
00c00c00
00c00c00
00400800
00601800
00601800
00201000
00301000
00303000
001fe000
ENDCHAR
STARTCHAR LogicalXor
ENCODING 131
SWIDTH 611 0
DWIDTH 16 0
BBX 14 17 1 0
BITMAP
c00c
4008
4008
6018
2010
2010
3020
1020
1020
1840
0840
0840
0f80
0000
0000
0000
7ff8
ENDCHAR
STARTCHAR Xor2
ENCODING 132
SWIDTH 782 0
DWIDTH 20 0
BBX 19 23 1 -4
BITMAP
c00060
600040
6000c0
6000c0
300080
300180
300180
100100
180300
080200
080200
0c0600
040400
040400
060c00
020800
020800
03f800
000000
000000
000000
000000
3fff80
ENDCHAR
STARTCHAR Xor3
ENCODING 133
SWIDTH 1200 0
DWIDTH 31 0
BBX 30 41 1 -12
BITMAP
e000001c
60000018
60000018
70000038
30000030
30000030
38000030
18000060
18000060
18000060
0c0000c0
0c0000c0
0c0000c0
06000180
06000180
06000180
03000300
03000300
03000300
01000200
01800600
01800600
00800400
00c00c00
00c00c00
00400800
00601800
00601800
00201000
00301000
00303000
001fe000
00000000
00000000
00000000
00000000
00000000
00000000
00000000
00000000
3ffffff0
ENDCHAR
STARTCHAR ConstantC
ENCODING 134
SWIDTH 520 0
DWIDTH 14 0
BBX 12 12 1 0
BITMAP
03e0
0f30
3630
6c00
5800
9800
b000
b000
b000
b020
58c0
3f00
ENDCHAR
STARTCHAR LongEqual
ENCODING 135
SWIDTH 784 0
DWIDTH 20 0
BBX 18 7 1 3
BITMAP
ffffc0
000000
000000
000000
000000
000000
ffffc0
ENDCHAR
STARTCHAR Diffd2
ENCODING 136
SWIDTH 500 0
DWIDTH 13 0
BBX 14 18 0 0
BITMAP
007c
0018
0018
0038
0030
0030
07b0
0cf0
1860
3060
2060
60c0
60c0
c0c0
c1c0
c390
c5a0
79c0
ENDCHAR
STARTCHAR Expe2
ENCODING 137
SWIDTH 444 0
DWIDTH 12 0
BBX 10 11 1 0
BITMAP
0780
0cc0
18c0
3180
6300
7c00
e000
c000
c080
e300
7c00
ENDCHAR
STARTCHAR Imagi2
ENCODING 138
SWIDTH 278 0
DWIDTH 7 0
BBX 6 17 1 0
BITMAP
0c
0c
0c
00
00
00
f8
38
30
30
70
60
60
e0
c4
c8
f0
ENDCHAR
STARTCHAR Imagj2
ENCODING 139
SWIDTH 278 0
DWIDTH 7 0
BBX 11 22 -3 -5
BITMAP
0060
0060
0060
0000
0000
0000
03c0
00c0
00c0
0180
0180
0180
0180
0300
0300
0300
0700
0600
0600
cc00
d800
7000
ENDCHAR
STARTCHAR CapitalCAcute
ENCODING 140
SWIDTH 667 0
DWIDTH 17 0
BBX 15 23 1 0
BITMAP
0410
0220
0360
01c0
0080
0000
03f4
0e1c
180c
3004
7004
7002
e000
e000
e000
e000
e000
e000
7000
7000
3806
1e18
07e0
ENDCHAR
STARTCHAR CapitalCHacek
ENCODING 141
SWIDTH 667 0
DWIDTH 17 0
BBX 15 23 1 0
BITMAP
0410
0220
0360
01c0
0080
0000
03f4
0e1c
180c
3004
7004
7002
e000
e000
e000
e000
e000
e000
7000
7000
3806
1e18
07e0
ENDCHAR
STARTCHAR EBar
ENCODING 142
SWIDTH 444 0
DWIDTH 12 0
BBX 10 16 1 0
BITMAP
7f80
0000
0000
0000
1e00
2380
6180
4180
ffc0
c000
c000
c000
e040
7080
3f00
1e00
ENDCHAR
STARTCHAR ECup
ENCODING 143
SWIDTH 444 0
DWIDTH 12 0
BBX 10 17 1 0
BITMAP
2080
2100
1e00
0000
0000
1e00
2300
6180
4180
ff80
c000
c000
c000
e040
7080
3f00
1e00
ENDCHAR
STARTCHAR CapitalEBar
ENCODING 144
SWIDTH 611 0
DWIDTH 16 0
BBX 16 20 0 0
BITMAP
07f8
0000
0000
fffc
180c
1804
1804
1808
1808
1818
1ff8
1818
1808
1808
1800
1801
1802
1802
180e
fffe
ENDCHAR
STARTCHAR CapitalECup
ENCODING 145
SWIDTH 611 0
DWIDTH 16 0
BBX 16 23 0 0
BITMAP
0410
0410
0620
03c0
0000
0000
fffc
180c
1804
1802
1808
1808
1818
1ff8
1818
1808
1808
1800
1801
1802
1802
180e
fffe
ENDCHAR
STARTCHAR ICup
ENCODING 146
SWIDTH 278 0
DWIDTH 7 0
BBX 8 17 0 0
BITMAP
81
42
3c
00
08
78
18
18
18
18
18
18
18
18
18
18
7e
ENDCHAR
STARTCHAR CapitalICup
ENCODING 147
SWIDTH 333 0
DWIDTH 9 0
BBX 8 23 0 0
BITMAP
81
43
62
3c
00
00
3c
18
18
18
18
18
18
18
18
18
18
18
18
18
18
3c
ff
ENDCHAR
STARTCHAR LSlash
ENCODING 148
SWIDTH 278 0
DWIDTH 7 0
BBX 8 18 0 0
BITMAP
10
f0
10
10
11
16
1c
10
70
d0
90
10
10
10
10
10
38
fe
ENDCHAR
STARTCHAR CapitalLSlash
ENCODING 149
SWIDTH 611 0
DWIDTH 16 0
BBX 16 17 0 0
BITMAP
ff00
3c00
1800
1800
1800
1800
1980
1b00
1c00
3800
7800
9800
1800
1801
1802
1806
fffe
ENDCHAR
STARTCHAR Mercury
ENCODING 150
SWIDTH 402 0
DWIDTH 10 0
BBX 9 17 1 0
BITMAP
c180
4180
6300
3e00
7600
4100
c180
8080
c100
4100
3600
1800
0800
0800
7f00
0800
0800
ENDCHAR
STARTCHAR Venus
ENCODING 151
SWIDTH 521 0
DWIDTH 14 0
BBX 12 17 1 0
BITMAP
0f00
30c0
6060
4020
c030
8010
c010
4020
4020
2040
1f80
0600
0600
0600
3fc0
0600
0600
ENDCHAR
STARTCHAR Earth
ENCODING 152
SWIDTH 535 0
DWIDTH 14 0
BBX 12 17 1 0
BITMAP
0600
0600
3fc0
0600
0600
0600
1f80
2040
4020
4020
8030
8010
c030
4020
6060
30c0
0f00
ENDCHAR
STARTCHAR Mars
ENCODING 153
SWIDTH 636 0
DWIDTH 17 0
BBX 15 15 1 0
BITMAP
007c
000e
001a
0f32
30e2
6062
4020
c020
8010
8010
4030
4020
6060
39c0
0f00
ENDCHAR
STARTCHAR Jupiter
ENCODING 154
SWIDTH 666 0
DWIDTH 17 0
BBX 16 20 1 -3
BITMAP
0003
0003
0fc3
3863
2033
601b
401b
400b
400b
000b
001b
0013
0033
0063
01c3
0f83
ffff
0003
0003
0003
ENDCHAR
STARTCHAR Saturn
ENCODING 155
SWIDTH 572 0
DWIDTH 15 0
BBX 13 17 1 0
BITMAP
7000
7000
7000
fe00
7000
7000
77e0
7c10
7018
7018
7018
6010
6030
6020
6060
6040
7060
ENDCHAR
STARTCHAR Uranus
ENCODING 156
SWIDTH 622 0
DWIDTH 16 0
BBX 15 17 1 0
BITMAP
f10e
3108
3108
3108
3108
3ff8
3108
3108
3108
3108
3108
f11e
03c0
0440
0440
0440
0380
ENDCHAR
STARTCHAR Neptune
ENCODING 157
SWIDTH 776 0
DWIDTH 20 0
BBX 19 20 1 -3
BITMAP
00e000
01f000
037800
106100
7c63c0
d46560
906100
106100
106100
106100
186300
086200
0ffc00
01f000
006000
006000
07fc00
006000
006000
006000
ENDCHAR
STARTCHAR Pluto
ENCODING 158
SWIDTH 577 0
DWIDTH 15 0
BBX 14 20 1 -3
BITMAP
ffc0
c0f0
c018
c008
c008
c00c
c00c
c00c
c008
c018
c030
ffe0
c000
c000
c000
c000
c000
c000
c000
fff8
ENDCHAR
STARTCHAR udieresis
ENCODING 159
SWIDTH 756 0
DWIDTH 20 0
BBX 18 17 1 0
BITMAP
03f000
0c0c00
300200
200100
400080
400080
800040
81c040
81c040
81c040
800040
c00080
400080
200100
300200
0c0c00
03f000
ENDCHAR
STARTCHAR dagger
ENCODING 160
SWIDTH 380 0
DWIDTH 10 0
BBX 8 11 1 1
BITMAP
81
86
8e
9e
be
fe
be
9e
8e
86
82
ENDCHAR
STARTCHAR LastPage
ENCODING 161
SWIDTH 380 0
DWIDTH 10 0
BBX 8 11 1 1
BITMAP
81
c1
e1
f1
f9
fd
f9
f1
e1
c1
81
ENDCHAR
STARTCHAR SolidLeftTriangle
ENCODING 162
SWIDTH 634 0
DWIDTH 16 0
BBX 14 14 2 0
BITMAP
0004
001c
007c
01fc
0ffc
3ffc
fffc
fffc
3ffc
0ffc
03fc
007c
001c
0004
ENDCHAR
STARTCHAR SolidRightTriangle
ENCODING 163
SWIDTH 634 0
DWIDTH 16 0
BBX 14 14 1 0
BITMAP
8000
e000
f800
fe00
ffc0
fff0
fffc
fffc
fff0
ffc0
ff00
f800
e000
8000
ENDCHAR
STARTCHAR QuarterNote
ENCODING 164
SWIDTH 400 0
DWIDTH 10 0
BBX 9 20 0 -1
BITMAP
0080
0080
0080
0080
0080
0080
0080
0080
0080
0080
0080
0080
0080
0080
0080
3c80
7f80
ff80
7f80
3e00
ENDCHAR
STARTCHAR EigthNote
ENCODING 165
SWIDTH 619 0
DWIDTH 16 0
BBX 16 20 0 -1
BITMAP
0080
00e0
00f0
009c
008c
0082
0083
0080
0080
0080
0080
0080
0080
0080
0080
3c80
7f80
ff80
7f80
3e00
ENDCHAR
STARTCHAR BeamedEighthNote
ENCODING 166
SWIDTH 905 0
DWIDTH 24 0
BBX 21 20 1 -1
BITMAP
00fff8
008008
008008
008008
008008
008008
008008
008008
008008
008008
008008
008008
008008
008008
008008
3c83c8
7f87e8
ff8ff8
7f87f8
3e03e0
ENDCHAR
STARTCHAR BeamedSixteenthNote
ENCODING 167
SWIDTH 905 0
DWIDTH 24 0
BBX 21 20 1 -1
BITMAP
00fff8
008008
008008
008008
00fff8
008008
008008
008008
008008
008008
008008
008008
008008
008008
008008
3c83c8
7f87e8
ff8ff8
7f87f8
3e03e0
ENDCHAR
STARTCHAR EntityStart
ENCODING 168
SWIDTH 778 0
DWIDTH 20 0
BBX 16 20 2 -3
BITMAP
ffff
8008
8008
8008
8008
8608
8908
8908
8a08
8ce8
9488
9688
a288
a308
b318
9ce8
8008
8008
8008
ffff
ENDCHAR
STARTCHAR EntityEnd
ENCODING 169
SWIDTH 778 0
DWIDTH 20 0
BBX 18 20 1 -3
BITMAP
ffffc0
080040
080040
080040
080040
080040
080040
080040
080040
086040
086040
080040
080040
080040
086040
087040
081040
086040
080040
ffffc0
ENDCHAR
STARTCHAR trademark
ENCODING 170
SWIDTH 674 0
DWIDTH 18 0
BBX 14 16 5 2
BITMAP
0004
000c
0018
0030
0060
0060
00c0
0180
0300
c300
c600
e600
7c00
7c00
3800
1800
ENDCHAR
STARTCHAR acute
ENCODING 171
SWIDTH 674 0
DWIDTH 18 0
BBX 17 18 2 0
BITMAP
000180
000300
000200
000400
fff800
801c00
803400
803400
806400
98c400
98c400
9d8400
8d8400
8f0400
870400
820400
800400
fffc00
ENDCHAR
STARTCHAR dieresis
ENCODING 172
SWIDTH 364 0
DWIDTH 9 0
BBX 9 9 1 10
BITMAP
ff00
8880
0800
0800
0800
0800
0800
0800
7e00
ENDCHAR
STARTCHAR notequal
ENCODING 173
SWIDTH 364 0
DWIDTH 9 0
BBX 8 9 0 9
BITMAP
18
18
d9
7e
18
7f
d9
18
1c
ENDCHAR
STARTCHAR AE
ENCODING 174
SWIDTH 429 0
DWIDTH 11 0
BBX 9 8 1 10
BITMAP
e380
4100
4100
7f00
4100
4100
4100
e380
ENDCHAR
STARTCHAR Oslash
ENCODING 175
SWIDTH 552 0
DWIDTH 14 0
BBX 7 17 6 -1
BITMAP
02
0c
18
30
30
60
60
60
40
c0
c0
c0
c0
c0
c0
c0
c0
ENDCHAR
STARTCHAR infinity
ENCODING 176
SWIDTH 552 0
DWIDTH 14 0
BBX 7 19 1 -3
BITMAP
06
06
06
06
06
0c
0c
18
30
c0
30
18
0c
0c
06
06
06
06
06
ENDCHAR
STARTCHAR plusminus
ENCODING 177
SWIDTH 552 0
DWIDTH 14 0
BBX 7 18 6 0
BITMAP
c0
c0
c0
c0
c0
c0
c0
c0
c0
40
60
60
60
30
10
18
0c
02
ENDCHAR
STARTCHAR lessequal
ENCODING 178
SWIDTH 552 0
DWIDTH 14 0
BBX 2 8 6 0
BITMAP
c0
c0
c0
c0
c0
c0
c0
c0
ENDCHAR
STARTCHAR greaterequal
ENCODING 179
SWIDTH 328 0
DWIDTH 9 0
BBX 6 22 1 -4
BITMAP
0c
10
30
30
30
30
30
30
30
30
60
e0
30
30
30
30
30
30
30
30
10
0c
ENDCHAR
STARTCHAR yen
ENCODING 180
SWIDTH 344 0
DWIDTH 9 0
BBX 6 33 1 -10
BITMAP
04
18
10
30
30
30
30
30
30
30
30
30
30
30
20
60
80
60
20
30
30
30
30
30
30
30
30
30
30
30
18
18
04
ENDCHAR
STARTCHAR mu
ENCODING 181
SWIDTH 446 0
DWIDTH 12 0
BBX 9 44 2 -15
BITMAP
0180
0200
0400
0c00
0c00
0800
1800
1800
1800
1800
1800
1800
1800
1800
1800
1800
1800
1800
3000
3000
6000
c000
c000
6000
3000
3000
1800
1800
1800
1800
1800
1800
1800
1800
1800
1800
1800
1800
0800
0c00
0c00
0400
0200
0180
ENDCHAR
STARTCHAR partialdiff
ENCODING 182
SWIDTH 562 0
DWIDTH 15 0
BBX 12 54 1 -20
BITMAP
0010
0060
00c0
0180
0300
0300
0300
0600
0600
0600
0600
0600
0600
0600
0600
0600
0600
0600
0600
0600
0600
0600
0c00
0c00
1800
3800
6000
e000
3800
1800
0c00
0c00
0600
0600
0600
0600
0600
0600
0600
0600
0600
0600
0600
0600
0600
0600
0600
0300
0300
0300
0180
00c0
0060
0010
ENDCHAR
STARTCHAR summation
ENCODING 183
SWIDTH 822 0
DWIDTH 21 0
BBX 19 11 1 1
BITMAP
040000
0c0000
180000
100000
300000
7f9e60
ff9e60
300000
180000
0c0000
040000
ENDCHAR
STARTCHAR product
ENCODING 184
SWIDTH 533 0
DWIDTH 14 0
BBX 10 18 2 0
BITMAP
0400
0e00
1f00
7580
c480
8440
0400
0400
0000
0000
0400
0400
0400
0400
0000
0000
0400
0400
ENDCHAR
STARTCHAR pi
ENCODING 185
SWIDTH 822 0
DWIDTH 21 0
BBX 18 11 2 1
BITMAP
000800
000400
000200
000100
cf3fc0
cf3f80
000180
000300
000600
000c00
000800
ENDCHAR
STARTCHAR integral
ENCODING 186
SWIDTH 533 0
DWIDTH 14 0
BBX 11 18 1 0
BITMAP
0400
0400
0000
0000
0400
0400
0400
0400
0000
0000
0400
0400
c460
64c0
3580
1f00
0e00
0400
ENDCHAR
STARTCHAR ordfeminine
ENCODING 187
SWIDTH 900 0
DWIDTH 23 0
BBX 20 10 2 2
BITMAP
fffff0
800010
800010
800010
986190
986190
800010
800010
800010
fffff0
ENDCHAR
STARTCHAR ordmasculine
ENCODING 188
SWIDTH 900 0
DWIDTH 23 0
BBX 9 20 7 -3
BITMAP
ff80
8080
8080
8c80
8c80
8080
8080
8080
8080
8c80
8c80
8080
8080
8080
8080
8c80
8c80
8080
8080
ff80
ENDCHAR
STARTCHAR Omega
ENCODING 189
SWIDTH 900 0
DWIDTH 23 0
BBX 20 20 2 -3
BITMAP
fc0000
820000
810000
808000
804000
c72000
671000
300800
180400
0c7200
063100
030080
018040
00e3a0
007390
003810
001c10
000e10
000710
0003f0
ENDCHAR
STARTCHAR ae
ENCODING 190
SWIDTH 364 0
DWIDTH 9 0
BBX 6 10 2 8
BITMAP
20
30
20
fc
fc
20
20
20
20
20
ENDCHAR
STARTCHAR oslash
ENCODING 191
SWIDTH 189 0
DWIDTH 5 0
BBX 0 0 0 0
BITMAP
ENDCHAR
STARTCHAR questiondown
ENCODING 192
SWIDTH 189 0
DWIDTH 5 0
BBX 0 0 0 0
BITMAP
ENDCHAR
STARTCHAR exclamdown
ENCODING 193
SWIDTH 189 0
DWIDTH 5 0
BBX 0 0 0 0
BITMAP
ENDCHAR
STARTCHAR logicalnot
ENCODING 194
SWIDTH 189 0
DWIDTH 5 0
BBX 0 0 0 0
BITMAP
ENDCHAR
STARTCHAR radical
ENCODING 195
SWIDTH 189 0
DWIDTH 5 0
BBX 0 0 0 0
BITMAP
ENDCHAR
STARTCHAR florin
ENCODING 196
SWIDTH 189 0
DWIDTH 5 0
BBX 0 0 0 0
BITMAP
ENDCHAR
STARTCHAR approxequal
ENCODING 197
SWIDTH 189 0
DWIDTH 5 0
BBX 0 0 0 0
BITMAP
ENDCHAR
STARTCHAR Delta
ENCODING 198
SWIDTH 189 0
DWIDTH 5 0
BBX 0 0 0 0
BITMAP
ENDCHAR
STARTCHAR guillemotleft
ENCODING 199
SWIDTH 189 0
DWIDTH 5 0
BBX 0 0 0 0
BITMAP
ENDCHAR
STARTCHAR guillemotright
ENCODING 200
SWIDTH 189 0
DWIDTH 5 0
BBX 0 0 0 0
BITMAP
ENDCHAR
STARTCHAR ellipsis
ENCODING 201
SWIDTH 189 0
DWIDTH 5 0
BBX 0 0 0 0
BITMAP
ENDCHAR
STARTCHAR nbspace
ENCODING 202
SWIDTH 189 0
DWIDTH 5 0
BBX 0 0 0 0
BITMAP
ENDCHAR
STARTCHAR Agrave
ENCODING 203
SWIDTH 189 0
DWIDTH 5 0
BBX 0 0 0 0
BITMAP
ENDCHAR
STARTCHAR Atilde
ENCODING 204
SWIDTH 189 0
DWIDTH 5 0
BBX 0 0 0 0
BITMAP
ENDCHAR
STARTCHAR Otilde
ENCODING 205
SWIDTH 189 0
DWIDTH 5 0
BBX 0 0 0 0
BITMAP
ENDCHAR
STARTCHAR parenright
ENCODING 206
SWIDTH 189 0
DWIDTH 5 0
BBX 0 0 0 0
BITMAP
ENDCHAR
STARTCHAR oe
ENCODING 207
SWIDTH 189 0
DWIDTH 5 0
BBX 0 0 0 0
BITMAP
ENDCHAR
STARTCHAR endash
ENCODING 208
SWIDTH 189 0
DWIDTH 5 0
BBX 0 0 0 0
BITMAP
ENDCHAR
STARTCHAR emdash
ENCODING 209
SWIDTH 189 0
DWIDTH 5 0
BBX 0 0 0 0
BITMAP
ENDCHAR
STARTCHAR quotedblleft
ENCODING 210
SWIDTH 189 0
DWIDTH 5 0
BBX 0 0 0 0
BITMAP
ENDCHAR
STARTCHAR quotedblright
ENCODING 211
SWIDTH 189 0
DWIDTH 5 0
BBX 0 0 0 0
BITMAP
ENDCHAR
STARTCHAR quoteleft
ENCODING 212
SWIDTH 189 0
DWIDTH 5 0
BBX 0 0 0 0
BITMAP
ENDCHAR
STARTCHAR quoteright
ENCODING 213
SWIDTH 189 0
DWIDTH 5 0
BBX 0 0 0 0
BITMAP
ENDCHAR
STARTCHAR divide
ENCODING 214
SWIDTH 189 0
DWIDTH 5 0
BBX 0 0 0 0
BITMAP
ENDCHAR
STARTCHAR lozenge
ENCODING 215
SWIDTH 189 0
DWIDTH 5 0
BBX 0 0 0 0
BITMAP
ENDCHAR
STARTCHAR ydieresis
ENCODING 216
SWIDTH 189 0
DWIDTH 5 0
BBX 0 0 0 0
BITMAP
ENDCHAR
STARTCHAR Ydieresis
ENCODING 217
SWIDTH 189 0
DWIDTH 5 0
BBX 0 0 0 0
BITMAP
ENDCHAR
STARTCHAR fraction
ENCODING 218
SWIDTH 189 0
DWIDTH 5 0
BBX 0 0 0 0
BITMAP
ENDCHAR
STARTCHAR currency
ENCODING 219
SWIDTH 189 0
DWIDTH 5 0
BBX 0 0 0 0
BITMAP
ENDCHAR
STARTCHAR guilsinglleft
ENCODING 220
SWIDTH 189 0
DWIDTH 5 0
BBX 0 0 0 0
BITMAP
ENDCHAR
STARTCHAR guilsinglright
ENCODING 221
SWIDTH 189 0
DWIDTH 5 0
BBX 0 0 0 0
BITMAP
ENDCHAR
STARTCHAR fi
ENCODING 222
SWIDTH 189 0
DWIDTH 5 0
BBX 0 0 0 0
BITMAP
ENDCHAR
STARTCHAR fl
ENCODING 223
SWIDTH 189 0
DWIDTH 5 0
BBX 0 0 0 0
BITMAP
ENDCHAR
STARTCHAR daggerdbl
ENCODING 224
SWIDTH 189 0
DWIDTH 5 0
BBX 0 0 0 0
BITMAP
ENDCHAR
STARTCHAR periodcentered
ENCODING 225
SWIDTH 189 0
DWIDTH 5 0
BBX 0 0 0 0
BITMAP
ENDCHAR
STARTCHAR quotesinglbase
ENCODING 226
SWIDTH 189 0
DWIDTH 5 0
BBX 0 0 0 0
BITMAP
ENDCHAR
STARTCHAR quotedblbase
ENCODING 227
SWIDTH 189 0
DWIDTH 5 0
BBX 0 0 0 0
BITMAP
ENDCHAR
STARTCHAR perthousand
ENCODING 228
SWIDTH 189 0
DWIDTH 5 0
BBX 0 0 0 0
BITMAP
ENDCHAR
STARTCHAR Acircumflex
ENCODING 229
SWIDTH 189 0
DWIDTH 5 0
BBX 0 0 0 0
BITMAP
ENDCHAR
STARTCHAR Ecircumflex
ENCODING 230
SWIDTH 189 0
DWIDTH 5 0
BBX 0 0 0 0
BITMAP
ENDCHAR
STARTCHAR Aacute
ENCODING 231
SWIDTH 189 0
DWIDTH 5 0
BBX 0 0 0 0
BITMAP
ENDCHAR
STARTCHAR Edieresis
ENCODING 232
SWIDTH 189 0
DWIDTH 5 0
BBX 0 0 0 0
BITMAP
ENDCHAR
STARTCHAR Egrave
ENCODING 233
SWIDTH 189 0
DWIDTH 5 0
BBX 0 0 0 0
BITMAP
ENDCHAR
STARTCHAR Iacute
ENCODING 234
SWIDTH 189 0
DWIDTH 5 0
BBX 0 0 0 0
BITMAP
ENDCHAR
STARTCHAR Icircumflex
ENCODING 235
SWIDTH 189 0
DWIDTH 5 0
BBX 0 0 0 0
BITMAP
ENDCHAR
STARTCHAR Idieresis
ENCODING 236
SWIDTH 189 0
DWIDTH 5 0
BBX 0 0 0 0
BITMAP
ENDCHAR
STARTCHAR Igrave
ENCODING 237
SWIDTH 189 0
DWIDTH 5 0
BBX 0 0 0 0
BITMAP
ENDCHAR
STARTCHAR Oacute
ENCODING 238
SWIDTH 189 0
DWIDTH 5 0
BBX 0 0 0 0
BITMAP
ENDCHAR
STARTCHAR Ocircumflex
ENCODING 239
SWIDTH 189 0
DWIDTH 5 0
BBX 0 0 0 0
BITMAP
ENDCHAR
STARTCHAR apple
ENCODING 240
SWIDTH 189 0
DWIDTH 5 0
BBX 0 0 0 0
BITMAP
ENDCHAR
STARTCHAR Ograve
ENCODING 241
SWIDTH 189 0
DWIDTH 5 0
BBX 0 0 0 0
BITMAP
ENDCHAR
STARTCHAR Uacute
ENCODING 242
SWIDTH 189 0
DWIDTH 5 0
BBX 0 0 0 0
BITMAP
ENDCHAR
STARTCHAR Ucircumflex
ENCODING 243
SWIDTH 189 0
DWIDTH 5 0
BBX 0 0 0 0
BITMAP
ENDCHAR
STARTCHAR Ugrave
ENCODING 244
SWIDTH 189 0
DWIDTH 5 0
BBX 0 0 0 0
BITMAP
ENDCHAR
STARTCHAR dotlessi
ENCODING 245
SWIDTH 189 0
DWIDTH 5 0
BBX 0 0 0 0
BITMAP
ENDCHAR
STARTCHAR circumflex
ENCODING 246
SWIDTH 189 0
DWIDTH 5 0
BBX 0 0 0 0
BITMAP
ENDCHAR
STARTCHAR CurlyQuote
ENCODING 247
SWIDTH 336 0
DWIDTH 9 0
BBX 3 6 3 11
BITMAP
c0
e0
e0
20
40
40
ENDCHAR
STARTCHAR CurlyDblQuote
ENCODING 248
SWIDTH 444 0
DWIDTH 12 0
BBX 10 6 1 11
BITMAP
c180
e3c0
e3c0
2040
4080
4100
ENDCHAR
STARTCHAR CurlyBackQuote
ENCODING 249
SWIDTH 336 0
DWIDTH 9 0
BBX 4 7 2 11
BITMAP
20
40
40
80
f0
f0
60
ENDCHAR
STARTCHAR CurlyDblBackQuote
ENCODING 250
SWIDTH 444 0
DWIDTH 12 0
BBX 10 7 1 11
BITMAP
2080
4100
4100
8200
f3c0
f3c0
6180
ENDCHAR
STARTCHAR StrikeCircle
ENCODING 251
SWIDTH 600 0
DWIDTH 16 0
BBX 15 15 0 0
BITMAP
07c0
1830
2008
4004
4004
8002
8002
8002
8002
8002
4004
4004
2008
1830
07c0
ENDCHAR
STARTCHAR StrikeSquare
ENCODING 252
SWIDTH 600 0
DWIDTH 16 0
BBX 14 14 1 0
BITMAP
fffc
8004
8004
8004
8004
8004
8004
8004
8004
8004
8004
8004
8004
fffc
ENDCHAR
STARTCHAR StrikeTriangle
ENCODING 253
SWIDTH 600 0
DWIDTH 16 0
BBX 15 14 0 0
BITMAP
0100
0100
0280
0280
0440
0440
0820
0820
1010
1010
2008
2008
4004
fffe
ENDCHAR
STARTCHAR MathLogo1
ENCODING 254
SWIDTH 2776 0
DWIDTH 72 0
BBX 74 17 0 0
BITMAP
0f801f00000000000000
01c03800000000000000
01c058060ffdf8fdff80
01c0580619c4603060c0
02c0980e31c260306040
02c0980e018040206000
02c13816018040204000
04e1381301804020c200
046230230180c060c400
046230230380ffe0fc00
086430430380c060c400
0864307f03008040c400
0878308183008040c000
10303081830180408040
10307101830180c18080
30207101c70180c18100
fc21ffc7efc7e7f7ff00
ENDCHAR
STARTCHAR MathLogo2
ENCODING 255
SWIDTH 2981 0
DWIDTH 78 0
BBX 77 16 0 0
BITMAP
00000000400800000070
0f00f0307ff7e0fc0890
0300c030c63383860958
0301c030861186021978
0301c07104090e021c88
0582c07004010c022c70
0582c0b0040318002c00
0584c0980c0318002c00
098881180c0330004c00
088881180c0330004400
08d183f80c033000fe00
10d18218080230008600
10e1840c080230050600
10c1840c180618090700
20c1880c18061c3a0300
f847fe3f7e1f87f78fc0
ENDCHAR
ENDFONT
